<svg width="96" height="96" viewBox="0 0 96 96" fill="none" xmlns="http://www.w3.org/2000/svg">
<g filter="url(#filter0_d_22580_5698)">
<rect x="20" y="6" width="56" height="56" rx="28" fill="#004372" shape-rendering="crispEdges"/>
<path fill-rule="evenodd" clip-rule="evenodd" d="M45.736 37.5435C43.401 36.5591 41.7637 34.2464 41.7637 31.5462C41.7637 27.485 45.4708 24.2981 49.6758 25.1499C52.165 25.659 54.1788 27.6615 54.699 30.1517C55.3744 33.4049 53.6034 36.404 50.8816 37.5548V39.718C50.8816 41.1331 49.7235 42.2912 48.3093 42.2912C46.8943 42.2912 45.736 41.1331 45.736 39.718V37.5435Z" stroke="white" stroke-width="1.44" stroke-linecap="round" stroke-linejoin="round"/>
<path d="M48.5449 37.5588H50.8856" stroke="white" stroke-width="1.44" stroke-linecap="round" stroke-linejoin="round"/>
<path d="M45.5703 30.8603C45.5703 29.6675 46.6584 28.7316 47.8933 28.9819" stroke="white" stroke-width="1.44" stroke-linecap="round" stroke-linejoin="round"/>
</g>
<defs>
<filter id="filter0_d_22580_5698" x="0" y="0" width="96" height="96" filterUnits="userSpaceOnUse" color-interpolation-filters="sRGB">
<feFlood flood-opacity="0" result="BackgroundImageFix"/>
<feColorMatrix in="SourceAlpha" type="matrix" values="0 0 0 0 0 0 0 0 0 0 0 0 0 0 0 0 0 0 127 0" result="hardAlpha"/>
<feOffset dy="14"/>
<feGaussianBlur stdDeviation="10"/>
<feComposite in2="hardAlpha" operator="out"/>
<feColorMatrix type="matrix" values="0 0 0 0 0.0470588 0 0 0 0 0.221176 0 0 0 0 0.917647 0 0 0 0.2 0"/>
<feBlend mode="normal" in2="BackgroundImageFix" result="effect1_dropShadow_22580_5698"/>
<feBlend mode="normal" in="SourceGraphic" in2="effect1_dropShadow_22580_5698" result="shape"/>
</filter>
</defs>
</svg>
