<svg width="24" height="24" viewBox="0 0 24 24" fill="none" xmlns="http://www.w3.org/2000/svg">
<path fill-rule="evenodd" clip-rule="evenodd" d="M12 21C7.02908 21 3 16.9709 3 12C3 7.02908 7.02908 3 12 3C16.9709 3 21 7.02908 21 12C21 16.9709 16.9709 21 12 21Z" stroke="white" stroke-width="1.5" stroke-linecap="round" stroke-linejoin="round"/>
<path d="M17.3834 19.0977C17.3834 19.0977 15.2058 13.0954 20.9999 11.9998" stroke="white" stroke-width="1.5" stroke-linecap="round" stroke-linejoin="round"/>
<path d="M20.1128 8.08797C19.1768 8.02278 17.4722 8.303 14.9716 10.101C11.9943 12.2455 11.3103 7.71338 12.256 3.01294" stroke="white" stroke-width="1.5" stroke-linecap="round" stroke-linejoin="round"/>
<path d="M11.5954 20.9999C11.5954 20.9999 12.2084 18.4634 10.4541 17.0915C8.69982 15.7205 7.38922 15.8208 7.17128 14.0772C6.95333 12.3336 9.10555 12.0408 7.53128 9.44585C6.49214 7.73244 5.31874 6.66022 5.36252 5.95093" stroke="white" stroke-width="1.5" stroke-linecap="round" stroke-linejoin="round"/>
</svg>
